<svg width="26" height="25" viewBox="0 0 26 25" fill="none" xmlns="http://www.w3.org/2000/svg">
<path d="M7.91977 18.6562L15.451 14.9688C15.5552 14.9271 15.6437 14.8698 15.7166 14.7969C15.7896 14.724 15.8469 14.6354 15.8885 14.5312L19.576 7C19.6802 6.79167 19.6541 6.60938 19.4979 6.45312C19.3416 6.29688 19.1594 6.27083 18.951 6.375L11.4198 10.0625C11.3156 10.1042 11.2271 10.1615 11.1541 10.2344C11.0812 10.3073 11.0239 10.3958 10.9823 10.5L7.29477 18.0312C7.1906 18.2396 7.21664 18.4219 7.37289 18.5781C7.52914 18.7344 7.71144 18.7604 7.91977 18.6562ZM13.451 13.75C13.0969 13.75 12.8 13.6302 12.5604 13.3906C12.3208 13.151 12.201 12.8542 12.201 12.5C12.201 12.1458 12.3208 11.849 12.5604 11.6094C12.8 11.3698 13.0969 11.25 13.451 11.25C13.8052 11.25 14.1021 11.3698 14.3416 11.6094C14.5812 11.849 14.701 12.1458 14.701 12.5C14.701 12.8542 14.5812 13.151 14.3416 13.3906C14.1021 13.6302 13.8052 13.75 13.451 13.75ZM13.451 25C11.7427 25 10.1281 24.6719 8.60727 24.0156C7.08644 23.3594 5.75831 22.4635 4.62289 21.3281C3.48748 20.1927 2.59164 18.8646 1.93539 17.3438C1.27914 15.8229 0.951019 14.2083 0.951019 12.5C0.951019 10.7917 1.27914 9.17708 1.93539 7.65625C2.59164 6.13542 3.48748 4.80729 4.62289 3.67188C5.75831 2.53646 7.08644 1.64062 8.60727 0.984375C10.1281 0.328125 11.7427 0 13.451 0C15.1594 0 16.7739 0.328125 18.2948 0.984375C19.8156 1.64062 21.1437 2.53646 22.2791 3.67188C23.4146 4.80729 24.3104 6.13542 24.9666 7.65625C25.6229 9.17708 25.951 10.7917 25.951 12.5C25.951 14.2083 25.6229 15.8229 24.9666 17.3438C24.3104 18.8646 23.4146 20.1927 22.2791 21.3281C21.1437 22.4635 19.8156 23.3594 18.2948 24.0156C16.7739 24.6719 15.1594 25 13.451 25ZM13.451 23.125C16.3677 23.125 18.8677 22.0833 20.951 20C23.0344 17.9167 24.076 15.4167 24.076 12.5C24.076 9.58333 23.0344 7.08333 20.951 5C18.8677 2.91667 16.3677 1.875 13.451 1.875C10.5344 1.875 8.03435 2.91667 5.95102 5C3.86769 7.08333 2.82602 9.58333 2.82602 12.5C2.82602 15.4167 3.86769 17.9167 5.95102 20C8.03435 22.0833 10.5344 23.125 13.451 23.125Z" fill="white"/>
</svg>
