<svg width="177" height="27" viewBox="0 0 177 27" fill="none" xmlns="http://www.w3.org/2000/svg">
<path d="M35.4681 23V5.54545H39.1584V12.7472H46.6499V5.54545H50.3317V23H46.6499V15.7898H39.1584V23H35.4681ZM69.4141 14.2727C69.4141 16.1761 69.0533 17.7955 68.3317 19.1307C67.6158 20.4659 66.6385 21.4858 65.3999 22.1903C64.1669 22.8892 62.7806 23.2386 61.2408 23.2386C59.6897 23.2386 58.2976 22.8864 57.0647 22.1818C55.8317 21.4773 54.8573 20.4574 54.1414 19.1222C53.4255 17.7869 53.0675 16.1705 53.0675 14.2727C53.0675 12.3693 53.4255 10.75 54.1414 9.41477C54.8573 8.07955 55.8317 7.0625 57.0647 6.36364C58.2976 5.65909 59.6897 5.30682 61.2408 5.30682C62.7806 5.30682 64.1669 5.65909 65.3999 6.36364C66.6385 7.0625 67.6158 8.07955 68.3317 9.41477C69.0533 10.75 69.4141 12.3693 69.4141 14.2727ZM65.6726 14.2727C65.6726 13.0398 65.488 12 65.1186 11.1534C64.755 10.3068 64.2408 9.66477 63.576 9.22727C62.9112 8.78977 62.1328 8.57102 61.2408 8.57102C60.3487 8.57102 59.5703 8.78977 58.9056 9.22727C58.2408 9.66477 57.7237 10.3068 57.3544 11.1534C56.9908 12 56.809 13.0398 56.809 14.2727C56.809 15.5057 56.9908 16.5455 57.3544 17.392C57.7237 18.2386 58.2408 18.8807 58.9056 19.3182C59.5703 19.7557 60.3487 19.9744 61.2408 19.9744C62.1328 19.9744 62.9112 19.7557 63.576 19.3182C64.2408 18.8807 64.755 18.2386 65.1186 17.392C65.488 16.5455 65.6726 15.5057 65.6726 14.2727ZM70.6861 8.58807V5.54545H85.0213V8.58807H79.6776V23H76.0299V8.58807H70.6861ZM96.8509 10.5653C96.7827 9.87784 96.4901 9.34375 95.973 8.96307C95.456 8.58239 94.7543 8.39204 93.8679 8.39204C93.2657 8.39204 92.7571 8.47727 92.3424 8.64773C91.9276 8.8125 91.6094 9.04261 91.3878 9.33807C91.1719 9.63352 91.0639 9.96875 91.0639 10.3438C91.0526 10.6562 91.1179 10.929 91.26 11.1619C91.4077 11.3949 91.6094 11.5966 91.8651 11.767C92.1208 11.9318 92.4162 12.0767 92.7514 12.2017C93.0867 12.321 93.4446 12.4233 93.8253 12.5085L95.3935 12.8835C96.1549 13.054 96.8537 13.2812 97.4901 13.5653C98.1264 13.8494 98.6776 14.1989 99.1435 14.6136C99.6094 15.0284 99.9702 15.517 100.226 16.0795C100.487 16.642 100.621 17.2869 100.626 18.0142C100.621 19.0824 100.348 20.0085 99.8083 20.7926C99.2742 21.571 98.5014 22.1761 97.4901 22.608C96.4844 23.0341 95.2713 23.2472 93.8509 23.2472C92.4418 23.2472 91.2145 23.0312 90.1691 22.5994C89.1293 22.1676 88.3168 21.5284 87.7316 20.6818C87.152 19.8295 86.848 18.7756 86.8196 17.5199H90.3907C90.4304 18.1051 90.598 18.5937 90.8935 18.9858C91.1946 19.3722 91.5952 19.6648 92.0952 19.8636C92.6009 20.0568 93.1719 20.1534 93.8083 20.1534C94.4333 20.1534 94.9759 20.0625 95.4361 19.8807C95.902 19.6989 96.2628 19.446 96.5185 19.1222C96.7742 18.7983 96.902 18.4261 96.902 18.0057C96.902 17.6136 96.7855 17.2841 96.5526 17.017C96.3253 16.75 95.9901 16.5227 95.5469 16.3352C95.1094 16.1477 94.5725 15.9773 93.9361 15.8239L92.0355 15.3466C90.5639 14.9886 89.402 14.429 88.5497 13.6676C87.6975 12.9062 87.2742 11.8807 87.2799 10.5909C87.2742 9.53409 87.5554 8.6108 88.1236 7.82102C88.6975 7.03125 89.4844 6.41477 90.4844 5.97159C91.4844 5.52841 92.6208 5.30682 93.8935 5.30682C95.1889 5.30682 96.3196 5.52841 97.2855 5.97159C98.2571 6.41477 99.0128 7.03125 99.5526 7.82102C100.092 8.6108 100.371 9.52557 100.388 10.5653H96.8509ZM103.109 23V5.54545H109.995C111.319 5.54545 112.447 5.7983 113.379 6.30398C114.31 6.80398 115.021 7.5 115.509 8.39204C116.004 9.27841 116.251 10.3011 116.251 11.4602C116.251 12.6193 116.001 13.642 115.501 14.5284C115.001 15.4148 114.276 16.1051 113.327 16.5994C112.384 17.0937 111.242 17.3409 109.901 17.3409H105.512V14.3835H109.305C110.015 14.3835 110.6 14.2614 111.06 14.017C111.526 13.767 111.873 13.4233 112.1 12.9858C112.333 12.5426 112.45 12.0341 112.45 11.4602C112.45 10.8807 112.333 10.375 112.1 9.94318C111.873 9.50568 111.526 9.16761 111.06 8.92898C110.594 8.68466 110.004 8.5625 109.288 8.5625H106.799V23H103.109ZM134.688 14.2727C134.688 16.1761 134.327 17.7955 133.605 19.1307C132.889 20.4659 131.912 21.4858 130.673 22.1903C129.44 22.8892 128.054 23.2386 126.514 23.2386C124.963 23.2386 123.571 22.8864 122.338 22.1818C121.105 21.4773 120.131 20.4574 119.415 19.1222C118.699 17.7869 118.341 16.1705 118.341 14.2727C118.341 12.3693 118.699 10.75 119.415 9.41477C120.131 8.07955 121.105 7.0625 122.338 6.36364C123.571 5.65909 124.963 5.30682 126.514 5.30682C128.054 5.30682 129.44 5.65909 130.673 6.36364C131.912 7.0625 132.889 8.07955 133.605 9.41477C134.327 10.75 134.688 12.3693 134.688 14.2727ZM130.946 14.2727C130.946 13.0398 130.761 12 130.392 11.1534C130.028 10.3068 129.514 9.66477 128.849 9.22727C128.185 8.78977 127.406 8.57102 126.514 8.57102C125.622 8.57102 124.844 8.78977 124.179 9.22727C123.514 9.66477 122.997 10.3068 122.628 11.1534C122.264 12 122.082 13.0398 122.082 14.2727C122.082 15.5057 122.264 16.5455 122.628 17.392C122.997 18.2386 123.514 18.8807 124.179 19.3182C124.844 19.7557 125.622 19.9744 126.514 19.9744C127.406 19.9744 128.185 19.7557 128.849 19.3182C129.514 18.8807 130.028 18.2386 130.392 17.392C130.761 16.5455 130.946 15.5057 130.946 14.2727ZM135.96 8.58807V5.54545H150.295V8.58807H144.951V23H141.303V8.58807H135.96ZM162.124 10.5653C162.056 9.87784 161.764 9.34375 161.246 8.96307C160.729 8.58239 160.028 8.39204 159.141 8.39204C158.539 8.39204 158.031 8.47727 157.616 8.64773C157.201 8.8125 156.883 9.04261 156.661 9.33807C156.445 9.63352 156.337 9.96875 156.337 10.3438C156.326 10.6562 156.391 10.929 156.533 11.1619C156.681 11.3949 156.883 11.5966 157.139 11.767C157.394 11.9318 157.69 12.0767 158.025 12.2017C158.36 12.321 158.718 12.4233 159.099 12.5085L160.667 12.8835C161.428 13.054 162.127 13.2812 162.764 13.5653C163.4 13.8494 163.951 14.1989 164.417 14.6136C164.883 15.0284 165.244 15.517 165.499 16.0795C165.761 16.642 165.894 17.2869 165.9 18.0142C165.894 19.0824 165.621 20.0085 165.082 20.7926C164.548 21.571 163.775 22.1761 162.764 22.608C161.758 23.0341 160.545 23.2472 159.124 23.2472C157.715 23.2472 156.488 23.0312 155.442 22.5994C154.403 22.1676 153.59 21.5284 153.005 20.6818C152.425 19.8295 152.121 18.7756 152.093 17.5199H155.664C155.704 18.1051 155.871 18.5937 156.167 18.9858C156.468 19.3722 156.869 19.6648 157.369 19.8636C157.874 20.0568 158.445 20.1534 159.082 20.1534C159.707 20.1534 160.249 20.0625 160.71 19.8807C161.175 19.6989 161.536 19.446 161.792 19.1222C162.048 18.7983 162.175 18.4261 162.175 18.0057C162.175 17.6136 162.059 17.2841 161.826 17.017C161.599 16.75 161.264 16.5227 160.82 16.3352C160.383 16.1477 159.846 15.9773 159.21 15.8239L157.309 15.3466C155.837 14.9886 154.675 14.429 153.823 13.6676C152.971 12.9062 152.548 11.8807 152.553 10.5909C152.548 9.53409 152.829 8.6108 153.397 7.82102C153.971 7.03125 154.758 6.41477 155.758 5.97159C156.758 5.52841 157.894 5.30682 159.167 5.30682C160.462 5.30682 161.593 5.52841 162.559 5.97159C163.531 6.41477 164.286 7.03125 164.826 7.82102C165.366 8.6108 165.644 9.52557 165.661 10.5653H162.124Z" fill="white"/>
<path d="M7.91977 20.6562L15.451 16.9688C15.5552 16.9271 15.6437 16.8698 15.7166 16.7969C15.7896 16.724 15.8469 16.6354 15.8885 16.5312L19.576 9C19.6802 8.79167 19.6541 8.60938 19.4979 8.45312C19.3416 8.29688 19.1594 8.27083 18.951 8.375L11.4198 12.0625C11.3156 12.1042 11.2271 12.1615 11.1541 12.2344C11.0812 12.3073 11.0239 12.3958 10.9823 12.5L7.29477 20.0312C7.1906 20.2396 7.21664 20.4219 7.37289 20.5781C7.52914 20.7344 7.71144 20.7604 7.91977 20.6562ZM13.451 15.75C13.0969 15.75 12.8 15.6302 12.5604 15.3906C12.3208 15.151 12.201 14.8542 12.201 14.5C12.201 14.1458 12.3208 13.849 12.5604 13.6094C12.8 13.3698 13.0969 13.25 13.451 13.25C13.8052 13.25 14.1021 13.3698 14.3416 13.6094C14.5812 13.849 14.701 14.1458 14.701 14.5C14.701 14.8542 14.5812 15.151 14.3416 15.3906C14.1021 15.6302 13.8052 15.75 13.451 15.75ZM13.451 27C11.7427 27 10.1281 26.6719 8.60727 26.0156C7.08644 25.3594 5.75831 24.4635 4.62289 23.3281C3.48748 22.1927 2.59164 20.8646 1.93539 19.3438C1.27914 17.8229 0.951019 16.2083 0.951019 14.5C0.951019 12.7917 1.27914 11.1771 1.93539 9.65625C2.59164 8.13542 3.48748 6.80729 4.62289 5.67188C5.75831 4.53646 7.08644 3.64062 8.60727 2.98437C10.1281 2.32812 11.7427 2 13.451 2C15.1594 2 16.7739 2.32812 18.2948 2.98437C19.8156 3.64062 21.1437 4.53646 22.2791 5.67188C23.4146 6.80729 24.3104 8.13542 24.9666 9.65625C25.6229 11.1771 25.951 12.7917 25.951 14.5C25.951 16.2083 25.6229 17.8229 24.9666 19.3438C24.3104 20.8646 23.4146 22.1927 22.2791 23.3281C21.1437 24.4635 19.8156 25.3594 18.2948 26.0156C16.7739 26.6719 15.1594 27 13.451 27ZM13.451 25.125C16.3677 25.125 18.8677 24.0833 20.951 22C23.0344 19.9167 24.076 17.4167 24.076 14.5C24.076 11.5833 23.0344 9.08333 20.951 7C18.8677 4.91667 16.3677 3.875 13.451 3.875C10.5344 3.875 8.03435 4.91667 5.95102 7C3.86769 9.08333 2.82602 11.5833 2.82602 14.5C2.82602 17.4167 3.86769 19.9167 5.95102 22C8.03435 24.0833 10.5344 25.125 13.451 25.125Z" fill="white"/>
</svg>
